<svg width="16" height="14" viewBox="0 0 16 14" fill="none" xmlns="http://www.w3.org/2000/svg">
<g clip-path="url(#clip0_3_185)">
<path d="M8.01548 2.32054L2.63901 5.9559V12.9894C2.63901 13.202 2.81167 13.3742 3.02478 13.3742H6.66529C6.8784 13.3742 7.05106 13.202 7.05106 12.9894V9.12061H9.22084V12.9894C9.22084 13.202 9.39366 13.3742 9.60661 13.3742H13.006C13.2191 13.3742 13.3918 13.202 13.3918 12.9894V6.01673L8.01548 2.32054Z" fill="#424242"/>
<path d="M3.05744 2.86025C3.27055 2.86025 3.44321 2.688 3.44321 2.4754V1.51532H4.97414C5.18725 1.51532 5.35991 1.34307 5.35991 1.13047C5.35991 0.917878 5.18709 0.74563 4.97414 0.74563H3.05744C2.84449 0.74563 2.67168 0.917878 2.67168 1.13047V2.4754C2.67168 2.688 2.84449 2.86025 3.05744 2.86025Z" fill="#424242"/>
<path d="M15.2604 5.57403L8.21764 0.78103C8.08651 0.691803 7.91401 0.691803 7.78272 0.78103L0.740152 5.57403C0.564224 5.69382 0.518803 5.93326 0.638888 6.10877C0.758974 6.28428 0.998833 6.32959 1.17492 6.20979L8.00018 1.56484L14.8254 6.20995C14.892 6.25526 14.9676 6.27699 15.0426 6.27699C15.1658 6.27699 15.2868 6.21817 15.3616 6.10893C15.4817 5.93342 15.4363 5.69398 15.2604 5.57418V5.57403Z" fill="#424242"/>
</g>
<defs>
<clipPath id="clip0_3_185">
<rect width="14.8571" height="12.6598" fill="white" transform="translate(0.571426 0.714285)"/>
</clipPath>
</defs>
</svg>
