<?xml version="1.0" encoding="UTF-8"?><svg id="Layer_1" xmlns="http://www.w3.org/2000/svg" viewBox="0 0 800 800"><defs><style>.cls-1{fill:#231f20;}.cls-2{fill-rule:evenodd;}.cls-2,.cls-3{fill:#010101;}</style></defs><path class="cls-3" d="M719.06,41c22.02,0,39.94,17.92,39.94,39.94v241.5c0,22.02-17.91,39.94-39.94,39.94H80.94c-22.02,0-39.94-17.92-39.94-39.94V80.94c0-22.02,17.92-39.94,39.94-39.94h638.13M719.06,0H80.94C36.24,0,0,36.24,0,80.94v241.5c0,44.7,36.24,80.94,80.94,80.94h638.13c44.7,0,80.94-36.24,80.94-80.94V80.94c0-44.7-36.24-80.94-80.94-80.94h0Z"/><path class="cls-1" d="M230.94,304.63h-36.44L118.68,115.75h45.55l49.03,132.09,49.03-132.09h44.47l-75.82,188.89Z"/><path class="cls-1" d="M408.31,247.03h-31.35v56.26h-41.26V115.75h76.63c44.74,0,71.8,26.53,71.8,64.84v.54c0,43.4-33.76,65.91-75.82,65.91ZM442.33,181.39c0-18.49-12.86-28.4-33.49-28.4h-31.88v57.34h32.69c20.63,0,32.69-12.32,32.69-28.4v-.54Z"/><path class="cls-1" d="M646.22,303.29l-90.83-119.23v119.23h-40.72V115.75h38.04l87.88,115.47v-115.47h40.72v187.55h-35.1Z"/><g id="key"><path class="cls-2" d="M85.01,571.61c-8.37,20.33-13.15,41.85-11.96,64.57,0,21.52,4.78,43.05,13.15,63.38,8.37,20.33,20.33,37.07,34.68,51.42h0c15.54,15.54,32.29,27.5,52.61,35.87,20.33,8.37,41.85,13.15,65.77,13.15,19.13,0,35.87-2.39,53.81-8.37,16.74-4.78,32.29-13.15,46.63-25.11,13.15-10.76,25.11-22.72,37.07-37.07,3.59-3.59,5.98-8.37,9.57-14.35h275.03c35.87,0,65.77-29.89,65.77-65.77v-31.09c0-16.74-7.17-33.48-20.33-46.63s-14.35-11.96-21.52-14.35v-26.31c0-16.74-7.17-33.48-20.33-46.63-13.15-13.15-28.7-19.13-46.63-20.33h-31.09c-26.31,0-47.83,14.35-59.79,35.87-8.37-3.59-17.94-5.98-27.5-5.98h-31.09c-16.74,0-33.48,7.17-46.63,20.33s-16.74,23.92-19.13,38.26h-21.52c-8.37-13.15-15.54-25.11-26.31-35.87-15.54-15.54-32.29-27.5-52.61-35.87-20.33-8.37-41.85-13.15-65.77-13.15s-44.24,3.59-64.57,14.35c-20.33,8.37-37.07,20.33-52.61,35.87s-26.31,33.48-34.68,53.81ZM238.07,514.21c33.48,0,63.38,13.15,84.9,34.68,21.52,21.52,23.92,31.09,29.89,49.03h98.05v-38.26c0-9.57,9.57-19.13,19.13-19.13h31.09c4.78,0,9.57,2.39,13.15,5.98s5.98,8.37,5.98,13.15v38.26h47.83v-69.35c0-9.57,9.57-19.13,19.13-19.13h31.09c4.78,0,9.57,2.39,13.15,5.98s5.98,8.37,5.98,13.15v69.35s21.52,0,21.52,0c4.78,0,9.57,2.39,13.15,5.98s5.98,8.37,5.98,13.15v31.09c0,9.57-9.57,19.13-19.13,19.13h-308.51c-15.54,49.03-60.98,84.9-113.6,84.9-33.48,0-63.38-13.15-84.9-34.68-21.52-21.52-34.68-51.42-34.68-82.51-1.2-65.77,52.61-119.58,119.58-119.58h0l1.2-1.2ZM214.15,638.57c0-11.96,10.76-22.72,23.92-23.92,11.96,0,22.72,10.76,23.92,23.92,0,11.96-10.76,22.72-23.92,23.92-11.96,0-22.72-10.76-23.92-23.92Z"/></g></svg>