<svg width="32" height="32" viewBox="0 0 32 32" fill="none" xmlns="http://www.w3.org/2000/svg">
<path d="M13.9375 8.19462C13.9375 7.63838 14.1548 7.10492 14.5416 6.7116C14.9284 6.31828 15.453 6.09731 16 6.09731C16.547 6.09731 17.0716 6.31828 17.4584 6.7116C17.8452 7.10492 18.0625 7.63838 18.0625 8.19462C18.0625 8.75086 17.8452 9.28432 17.4584 9.67764C17.0716 10.071 16.547 10.2919 16 10.2919C15.453 10.2919 14.9284 10.071 14.5416 9.67764C14.1548 9.28432 13.9375 8.75086 13.9375 8.19462ZM20.125 8.19462C20.125 7.08214 19.6904 6.01522 18.9168 5.22858C18.1432 4.44193 17.094 4 16 4C14.906 4 13.8568 4.44193 13.0832 5.22858C12.3096 6.01522 11.875 7.08214 11.875 8.19462C11.875 9.3071 12.3096 10.374 13.0832 11.1607C13.8568 11.9473 14.906 12.3892 16 12.3892C17.094 12.3892 18.1432 11.9473 18.9168 11.1607C19.6904 10.374 20.125 9.3071 20.125 8.19462ZM14.1266 17.0121L14.9688 17.3704V25.4275C12.9234 24.6672 10.7578 24.274 8.575 24.274H7.0625V15.8848H8.575C10.4828 15.8848 12.3691 16.2693 14.1266 17.0121ZM23.425 24.274C21.2422 24.274 19.0766 24.6672 17.0312 25.4275V17.3704L17.8734 17.0121C19.6352 16.2649 21.5215 15.8848 23.425 15.8848H24.9375V24.274H23.425ZM16 15.5352L14.9215 15.0764C12.9105 14.2244 10.7535 13.7874 8.575 13.7874H7.0625C5.92383 13.7874 5 14.7269 5 15.8848V24.274C5 25.4319 5.92383 26.3713 7.0625 26.3713H8.575C10.7535 26.3713 12.9105 26.8082 14.9215 27.6603L15.4715 27.8919C15.8109 28.036 16.1891 28.036 16.5285 27.8919L17.0785 27.6603C19.0895 26.8082 21.2465 26.3713 23.425 26.3713H24.9375C26.0762 26.3713 27 25.4319 27 24.274V15.8848C27 14.7269 26.0762 13.7874 24.9375 13.7874H23.425C21.2465 13.7874 19.0895 14.2244 17.0785 15.0764L16 15.5352Z" fill="black"/>
</svg>
