<svg width="19" height="19" viewBox="0 0 19 19" fill="none" xmlns="http://www.w3.org/2000/svg">
<g clip-path="url(#clip0_181_896)">
<path d="M17.76 8.48H15.25C14.98 7.42 14.02 6.63 12.88 6.63C11.74 6.63 10.78 7.42 10.51 8.48H0.6C0.27 8.48 0 8.75 0 9.08C0 9.41 0.27 9.68001 0.6 9.68001H10.5C10.77 10.74 11.73 11.53 12.87 11.53C14.01 11.53 14.97 10.74 15.24 9.68001H17.75C18.08 9.68001 18.35 9.41 18.35 9.08C18.35 8.75 18.08 8.48 17.75 8.48H17.76ZM12.87 10.33C12.18 10.33 11.62 9.77 11.62 9.08C11.62 8.39 12.18 7.83 12.87 7.83C13.56 7.83 14.12 8.39 14.12 9.08C14.12 9.77 13.56 10.33 12.87 10.33Z" fill="#231F20"/>
<path d="M0.6 3.04001H3.11C3.38 4.10001 4.34 4.89001 5.48 4.89001C6.62 4.89001 7.58 4.10001 7.85 3.04001H17.75C18.08 3.04001 18.35 2.77001 18.35 2.44001C18.35 2.11001 18.08 1.84001 17.75 1.84001H7.85C7.58 0.780006 6.62 -0.00999451 5.48 -0.00999451C4.34 -0.00999451 3.38 0.780006 3.11 1.84001H0.6C0.27 1.84001 0 2.11001 0 2.44001C0 2.77001 0.27 3.04001 0.6 3.04001ZM5.48 1.20001C6.17 1.20001 6.73 1.76001 6.73 2.45001C6.73 3.14001 6.17 3.70001 5.48 3.70001C4.79 3.70001 4.23 3.14001 4.23 2.45001C4.23 1.76001 4.79 1.20001 5.48 1.20001Z" fill="#231F20"/>
<path d="M17.76 15.12H7.85C7.58 14.06 6.62 13.27 5.48 13.27C4.34 13.27 3.38 14.06 3.11 15.12H0.6C0.27 15.12 0 15.39 0 15.72C0 16.05 0.27 16.32 0.6 16.32H3.11C3.38 17.38 4.34 18.17 5.48 18.17C6.62 18.17 7.58 17.38 7.85 16.32H17.75C18.08 16.32 18.35 16.05 18.35 15.72C18.35 15.39 18.08 15.12 17.75 15.12H17.76ZM5.48 16.97C4.79 16.97 4.23 16.41 4.23 15.72C4.23 15.03 4.79 14.47 5.48 14.47C6.17 14.47 6.73 15.03 6.73 15.72C6.73 16.41 6.17 16.97 5.48 16.97Z" fill="#231F20"/>
</g>
<defs>
<clipPath id="clip0_181_896">
<rect width="18.35" height="18.17" fill="white"/>
</clipPath>
</defs>
</svg>
