<svg width="16" height="13" viewBox="0 0 16 13" fill="none" xmlns="http://www.w3.org/2000/svg">
<g clip-path="url(#clip0_157_154)">
<path d="M15.467 0H0.532992C0.238628 0 0 0.240585 0 0.537361V2.24245C0 2.53922 0.238628 2.77981 0.532992 2.77981H15.467C15.7614 2.77981 16 2.53922 16 2.24245V0.537361C16 0.240585 15.7614 0 15.467 0Z" fill="#404040"/>
<path d="M1.97821 3.51352H1.13773V11.8013C1.13773 12.039 1.32222 12.225 1.55797 12.225H4.17168V11.3776H1.97821V7.21304H4.17168V6.36567H1.97821V3.52385V3.51352Z" fill="#404040"/>
<path d="M15.467 5.38394H5.5759C5.28154 5.38394 5.04291 5.62453 5.04291 5.9213V7.62639C5.04291 7.92317 5.28154 8.16375 5.5759 8.16375H15.467C15.7614 8.16375 16 7.92317 16 7.62639V5.9213C16 5.62453 15.7614 5.38394 15.467 5.38394Z" fill="#404040"/>
<path d="M15.467 10.2202H5.5759C5.28154 10.2202 5.04291 10.4608 5.04291 10.7575V12.4626C5.04291 12.7594 5.28154 13 5.5759 13H15.467C15.7614 13 16 12.7594 16 12.4626V10.7575C16 10.4608 15.7614 10.2202 15.467 10.2202Z" fill="#404040"/>
</g>
<defs>
<clipPath id="clip0_157_154">
<rect width="16" height="13" fill="white"/>
</clipPath>
</defs>
</svg>
