<svg width="20" height="18" viewBox="0 0 20 18" fill="none" xmlns="http://www.w3.org/2000/svg">
<path d="M18.9635 11.3842H18.3059V11.0544C18.3059 9.57231 16.9543 8.36712 15.2922 8.36712C14.3059 8.36712 13.4292 8.79057 12.8813 9.44609C12.137 8.96972 11.2968 8.61956 10.4018 8.41191C11.895 7.62609 12.8995 6.17253 12.8995 4.51947C12.8995 2.02765 10.6256 0 7.83105 0C5.03653 0 2.75799 2.02765 2.75799 4.51947C2.75799 6.1766 3.76256 7.62609 5.25571 8.41191C4.09132 8.68063 3.01826 9.18958 2.13699 9.90618C0.757991 11.0259 0 12.5161 0 14.1081C0 14.4175 0.278539 14.6659 0.625571 14.6659C0.972603 14.6659 1.25114 14.4175 1.25114 14.1081C1.25114 11.4615 3.92694 9.30766 7.21918 9.30766H8.43379C9.93151 9.30766 11.2968 9.75146 12.347 10.4884C12.3014 10.6716 12.2785 10.8589 12.2785 11.0544V11.3842H11.4886C10.9132 11.3842 10.4475 11.7995 10.4475 12.3125V16.9908C10.4475 17.5038 10.9132 17.9191 11.4886 17.9191H18.9589C19.5342 17.9191 20 17.5038 20 16.9908V12.3125C20 11.7995 19.5342 11.3842 18.9589 11.3842H18.9635ZM7.82648 7.92332C5.72146 7.92332 4.00913 6.39647 4.00913 4.51947C4.00913 2.64246 5.72603 1.11969 7.82648 1.11969C9.92694 1.11969 11.6438 2.64653 11.6438 4.52354C11.6438 6.40054 9.93151 7.92739 7.82648 7.92739V7.92332ZM13.5342 11.0544C13.5342 10.1912 14.3242 9.48681 15.2922 9.48681C16.2603 9.48681 17.0502 10.1912 17.0502 11.0544V11.3842H13.5342V11.0544ZM18.7489 16.7994H11.7032V12.4998H18.7489V16.7994Z" fill="#0073E6"/>
</svg>
