<svg width="16" height="16" viewBox="0 0 16 16" fill="none" xmlns="http://www.w3.org/2000/svg">
<g clip-path="url(#clip0_247_233)">
<path d="M5.0453 3.39073C5.27826 3.39073 5.46463 3.19294 5.46463 2.9457V0.445033C5.46463 0.197793 5.27826 0 5.0453 0C4.81234 0 4.62598 0.197793 4.62598 0.445033V2.9457C4.62598 3.19294 4.81234 3.39073 5.0453 3.39073Z" fill="#666666"/>
<path d="M10.7631 3.39073C10.996 3.39073 11.1824 3.19294 11.1824 2.9457V0.445033C11.1824 0.197793 10.996 0 10.7631 0C10.5301 0 10.3438 0.197793 10.3438 0.445033V2.9457C10.3438 3.19294 10.5301 3.39073 10.7631 3.39073Z" fill="#666666"/>
<path d="M13.1122 1.73068H12.1204V2.93863C12.1204 3.73686 11.5081 4.37969 10.7626 4.37969C10.0171 4.37969 9.4048 3.7298 9.4048 2.93863V1.73068H6.40961V2.93863C6.40961 3.73686 5.79726 4.37969 5.05179 4.37969C4.30632 4.37969 3.69397 3.7298 3.69397 2.93863V1.73068H2.70223C2.06326 1.73068 1.4975 2.05563 1.13142 2.55717H1.09148V2.61368C0.858525 2.95982 0.71875 3.38366 0.71875 3.83576V13.8879C0.71875 15.0464 1.61065 15.9929 2.70223 15.9929H13.1122C14.2104 15.9929 15.0957 15.0464 15.0957 13.8879V3.84282C15.0957 2.68432 14.2038 1.73775 13.1122 1.73775V1.73068ZM14.1572 13.8949C14.1572 14.5095 13.6846 15.004 13.1122 15.004H2.69557C2.1165 15.004 1.65059 14.5024 1.65059 13.8949V6.05386H14.1572V13.8949Z" fill="#666666"/>
</g>
<defs>
<clipPath id="clip0_247_233">
<rect width="14.3836" height="16" fill="white" transform="translate(0.712402)"/>
</clipPath>
</defs>
</svg>

