<svg width="24" height="22" viewBox="0 0 24 22" fill="none" xmlns="http://www.w3.org/2000/svg">
<path d="M7.5382 2.00645C9.13616 2.05104 10.5836 2.93572 11.6897 4.43114C11.994 4.84282 11.9883 4.84361 12.3015 4.4168C13.1572 3.25025 14.2577 2.41415 15.6995 2.11952C17.803 1.68953 19.4911 2.43883 20.7968 4.05927C22.3779 6.02052 22.2507 8.1466 21.2799 10.3045C20.6326 11.7434 19.566 12.8893 18.4639 13.9961C16.432 16.037 14.2553 17.9281 12.1638 19.9069C12.0173 20.0455 11.94 20.0192 11.8088 19.895C9.51451 17.7227 7.1051 15.6691 4.92511 13.3798C3.78037 12.1774 2.77893 10.8771 2.29109 9.25582C1.38464 6.24507 2.68394 3.85303 4.95892 2.56704C5.65928 2.17128 6.42083 1.9969 7.5382 2.00645Z" stroke="#38C46B" stroke-width="2"/>
</svg>
