<svg id="twitter" xmlns="http://www.w3.org/2000/svg" viewBox="0 0 3.43 2.72"><path d="M.55,2.6a1.23,1.23,0,0,0,.34.11h.2a1.58,1.58,0,0,0,.31,0l.2,0a2.76,2.76,0,0,0,.51-.16,2,2,0,0,0,.51-.34A1.5,1.5,0,0,0,3,1.67a1.43,1.43,0,0,0,.08-.22s0,0,0,0h0l.18,0a.54.54,0,0,0,.22-.13v0a1.2,1.2,0,0,1-.42,0h0l.11,0a.84.84,0,0,0,.2-.08A.18.18,0,0,0,3.49,1V1h0a.58.58,0,0,1-.19,0H3.2L3.05,1S3,1,3,1A.89.89,0,0,0,2.92.68.71.71,0,0,0,2.64.39.84.84,0,0,0,2.21.25h0l.13,0A.84.84,0,0,0,2.48.15l0,0s0,0,0,0H2.42a.55.55,0,0,0-.17,0h0l0,0L2.34,0s0,0,0,0H2.28a.56.56,0,0,0-.2.11h0s0,0,0-.06h0L2,.09a1.79,1.79,0,0,0-.34.44A2.26,2.26,0,0,0,1.5,1l0,0h0L1.34.86A2.51,2.51,0,0,0,.89.6C.66.49.43.4.2.31t0,0h0a.17.17,0,0,0,0,.07A.53.53,0,0,0,.33.67.83.83,0,0,0,.48.78H.4L.28.83s0,0,0,0a.4.4,0,0,0,.18.26.62.62,0,0,0,.22.1h0a.36.36,0,0,0-.17.07s0,0,0,.06a.38.38,0,0,0,.25.18.58.58,0,0,0,.19,0h0a0,0,0,0,1,0,0,.22.22,0,0,0-.09.07.13.13,0,0,0,0,.19h0A.36.36,0,0,0,1,1.91H1L1,2a1,1,0,0,1-.85.23h0A1.31,1.31,0,0,0,.55,2.6Z" transform="translate(-0.09 0)" style="fill:#302f2f"/></svg>