<svg id="Layer_1" data-name="Layer 1" xmlns="http://www.w3.org/2000/svg" viewBox="0 0 868.22 79.63"><defs><style>.cls-1{fill:#cfb87c}.cls-3{fill:#fff}</style></defs><path class="cls-1" d="M59.6 20.07v-9.15L48.7 0H10.93L0 10.92v37.7l10.93 10.91h12v9.18l11.02 10.93h31.87l11.04-10.92V39.51h5.63V20.07H59.6z"/><path fill="#231f20" d="M48.23 1.13l10.23 10.26v9.81h22.9v17.19h-5.63v29.85L65.35 78.5H34.41L24.06 68.24V58.4H11.4L1.13 48.15V11.39L11.4 1.13h36.83z"/><path class="cls-3" d="M12.57 55.57h14.32v11.49l8.69 8.61h28.61l8.71-8.61V35.55h5.63V24.04H61.26v40.13H38.4v-8.6h8.65l8.58-8.6V35.55H44.12v8.53H38.4V24.04H21.18v11.51h5.71v8.53H15.45V15.37h28.67v8.67h11.51V12.57l-8.58-8.61H12.57l-8.61 8.6v34.41l8.61 8.6"/><path class="cls-1" d="M36.98 54.15h9.49l7.75-7.76v-9.42h-8.68v8.53h-8.56V25.46H22.6v8.68h5.71V45.5H14.04V13.95h31.5v8.67h8.68v-9.47l-7.75-7.77H13.16l-7.78 7.77v33.24l7.78 7.76h15.15v12.32l7.85 7.79H63.6l7.88-7.8V34.14h5.63v-8.68H62.67v40.12H36.98V54.15z"/><path class="cls-3" d="M167.76 214.68q-4 3.79-11.5 3.79-7.63 0-11.91-3.62t-4.28-11.52v-25.2h5.25v25.2q0 5.31 2.82 8t8.12 2.74q5 0 7.65-2.74t2.63-8v-25.2h5.25v25.2q0 7.56-4.03 11.35zM183.84 189v4.53h.16q2.93-5.2 9.29-5.2a12.39 12.39 0 014.7.77 7.74 7.74 0 013 2.16 8 8 0 011.63 3.29 17.71 17.71 0 01.47 4.23v18.79h-4.7v-19.33a5.68 5.68 0 00-1.55-4.2 5.76 5.76 0 00-4.26-1.55 9.57 9.57 0 00-3.73.66 7 7 0 00-2.63 1.88 8.1 8.1 0 00-1.58 2.85 11.56 11.56 0 00-.52 3.57v16.14h-4.7V189zM210.42 183.87v-5.75h4.7v5.75zm4.7 5.14v28.57h-4.7V189zM230.26 217.58L219.65 189h5.25l8 23.82h.1l7.82-23.82h4.92l-10.45 28.57zM270.28 215.76a13 13 0 01-8.07 2.43 14.68 14.68 0 01-5.94-1.11A11.7 11.7 0 01252 214a13.13 13.13 0 01-2.57-4.75 22.84 22.84 0 01-1-6 17.19 17.19 0 011-6 14.26 14.26 0 012.79-4.7 12.66 12.66 0 014.26-3.09 13 13 0 015.39-1.11 11.73 11.73 0 016.33 1.57 12.53 12.53 0 014 4 15.85 15.85 0 012.1 5.31 22.78 22.78 0 01.47 5.47h-21.29a11.33 11.33 0 00.44 3.56 8 8 0 001.6 3 7.9 7.9 0 002.82 2.07 9.72 9.72 0 004 .77 8.13 8.13 0 004.89-1.38 6.68 6.68 0 002.51-4.2h4.64a11.42 11.42 0 01-4.1 7.24zm-1.13-18.35a8.06 8.06 0 00-1.71-2.57 8.16 8.16 0 00-2.54-1.71 8 8 0 00-3.23-.63 8.19 8.19 0 00-3.29.63 7.61 7.61 0 00-2.51 1.74 8.34 8.34 0 00-1.66 2.57 9.76 9.76 0 00-.72 3.12h16.41a9.64 9.64 0 00-.75-3.15zM284 189v6h.11a12.72 12.72 0 014.2-5.14 10.56 10.56 0 016.3-1.55v5a13.3 13.3 0 00-4.81.77 7.57 7.57 0 00-3.21 2.27 9.36 9.36 0 00-1.77 3.62 19.53 19.53 0 00-.55 4.89v12.71h-4.7V189zM301.72 211.2a5 5 0 001.74 1.71 7.8 7.8 0 002.43.91 13.86 13.86 0 002.79.28 17.28 17.28 0 002.32-.17 8.54 8.54 0 002.24-.61 4.19 4.19 0 001.69-1.3 3.46 3.46 0 00.66-2.18 3.13 3.13 0 00-1.38-2.76 11.76 11.76 0 00-3.45-1.52q-2.07-.58-4.5-1a23.3 23.3 0 01-4.5-1.33 9.32 9.32 0 01-3.45-2.4 6.25 6.25 0 01-1.38-4.31 6.85 6.85 0 011-3.7 7.9 7.9 0 012.49-2.51 11.44 11.44 0 013.43-1.44 15.83 15.83 0 013.79-.47 22.52 22.52 0 014.48.41 10.36 10.36 0 013.62 1.44 7.44 7.44 0 012.51 2.76 10.51 10.51 0 011.11 4.34h-4.7a4.77 4.77 0 00-.72-2.29 4.71 4.71 0 00-1.55-1.46 7.06 7.06 0 00-2.07-.8 10.68 10.68 0 00-2.29-.25 13.89 13.89 0 00-2.13.17 7.16 7.16 0 00-2 .58 4 4 0 00-1.44 1.11 2.79 2.79 0 00-.55 1.8 2.64 2.64 0 00.86 2 6.82 6.82 0 002.18 1.33 19.07 19.07 0 003 .88l3.32.75a35.46 35.46 0 013.45.94 11.28 11.28 0 013 1.46 7.16 7.16 0 012.1 2.29 6.74 6.74 0 01.8 3.43 8 8 0 01-1.08 4.31 8.41 8.41 0 01-2.82 2.76 11.8 11.8 0 01-3.92 1.46 23.27 23.27 0 01-4.34.41 20 20 0 01-4.53-.5 11.1 11.1 0 01-3.81-1.63 8.29 8.29 0 01-2.65-3 10.33 10.33 0 01-1.11-4.5H301a5.28 5.28 0 00.72 2.6zM326 183.87v-5.75h4.7v5.75zm4.7 5.14v28.57H326V189zM350.25 189v4.15h-5.69v17.74a5.09 5.09 0 00.14 1.33 1.37 1.37 0 00.52.77 2.31 2.31 0 001.08.36 15.62 15.62 0 001.8.08h2.16v4.15h-3.59a16.88 16.88 0 01-3.12-.25 4.57 4.57 0 01-2.1-.91 3.88 3.88 0 01-1.19-1.88 10.82 10.82 0 01-.39-3.2v-18.19H335V189h4.86v-8.57h4.7V189zM366.66 221.39a30 30 0 01-1.63 3.54 9.72 9.72 0 01-1.77 2.35 6 6 0 01-2.16 1.33 8.28 8.28 0 01-2.74.41 12.7 12.7 0 01-1.66-.11 7.91 7.91 0 01-1.6-.39v-4.31a8 8 0 001.41.47 6 6 0 001.35.19 4 4 0 002.4-.69 4.24 4.24 0 001.46-2l1.93-4.81-11.3-28.37h5.31l8.34 23.39h.11l8-23.38h5zM397.78 197.44a13.34 13.34 0 012.65-4.75 12.49 12.49 0 014.37-3.18 16 16 0 0112 0 12.57 12.57 0 014.34 3.18 13.37 13.37 0 012.65 4.75 19 19 0 01.88 5.89 18.78 18.78 0 01-.88 5.86 13.39 13.39 0 01-2.65 4.73 12.26 12.26 0 01-4.34 3.15 16.36 16.36 0 01-12 0 12.19 12.19 0 01-4.37-3.15 13.36 13.36 0 01-2.65-4.73 18.78 18.78 0 01-.88-5.86 19 19 0 01.88-5.89zm4.78 10.5a9.63 9.63 0 001.91 3.37 8.26 8.26 0 002.85 2.07 8.66 8.66 0 006.91 0 8.27 8.27 0 002.85-2.07 9.65 9.65 0 001.91-3.37 15.76 15.76 0 000-9.23 10 10 0 00-1.91-3.4 8.13 8.13 0 00-2.85-2.1 8.66 8.66 0 00-6.91 0 8.12 8.12 0 00-2.85 2.1 10 10 0 00-1.91 3.4 15.74 15.74 0 000 9.23zM427.29 193.15V189h4.81v-4.26a6.69 6.69 0 012-5.28 8.58 8.58 0 015.89-1.8 12 12 0 011.52.11 8.17 8.17 0 011.52.33v4.09a5.84 5.84 0 00-1.33-.3 11.58 11.58 0 00-1.33-.08 4.55 4.55 0 00-2.65.66 2.92 2.92 0 00-.94 2.54v4h5.53v4.15h-5.51v24.43h-4.7v-24.44zM486.51 183.7a12.2 12.2 0 00-7.16-2.1 12.82 12.82 0 00-6.05 1.33 11.92 11.92 0 00-4.14 3.57 15.38 15.38 0 00-2.4 5.11 22.85 22.85 0 00-.77 6 25.55 25.55 0 00.77 6.38 15.25 15.25 0 002.4 5.25 11.86 11.86 0 004.17 3.57 13 13 0 006.08 1.33 11.7 11.7 0 004.61-.86 10.44 10.44 0 003.48-2.38 11 11 0 002.29-3.62 15.08 15.08 0 001-4.53H496q-.77 7.46-5.14 11.61t-11.86 4.1a19 19 0 01-8-1.57 15.73 15.73 0 01-5.69-4.34 18.6 18.6 0 01-3.4-6.52 27.81 27.81 0 01-1.13-8.07 26.3 26.3 0 011.22-8.1 19.49 19.49 0 013.56-6.61 16.62 16.62 0 015.86-4.45 18.89 18.89 0 018-1.63 20.29 20.29 0 015.86.83 15.74 15.74 0 014.92 2.43 13.69 13.69 0 013.59 4 14.7 14.7 0 011.88 5.55h-5.25a9.77 9.77 0 00-3.91-6.28zM501.13 197.44a13.34 13.34 0 012.65-4.75 12.49 12.49 0 014.37-3.18 16 16 0 0112 0 12.57 12.57 0 014.34 3.18 13.37 13.37 0 012.65 4.75 19 19 0 01.88 5.89 18.78 18.78 0 01-.88 5.86 13.39 13.39 0 01-2.65 4.73 12.26 12.26 0 01-4.34 3.15 16.36 16.36 0 01-12 0 12.19 12.19 0 01-4.37-3.15 13.36 13.36 0 01-2.65-4.73 18.78 18.78 0 01-.88-5.86 19 19 0 01.88-5.89zm4.78 10.5a9.63 9.63 0 001.91 3.37 8.26 8.26 0 002.85 2.07 8.66 8.66 0 006.91 0 8.27 8.27 0 002.85-2.07 9.65 9.65 0 001.91-3.37 15.76 15.76 0 000-9.23 10 10 0 00-1.91-3.4 8.13 8.13 0 00-2.85-2.1 8.66 8.66 0 00-6.91 0 8.12 8.12 0 00-2.85 2.1 10 10 0 00-1.91 3.4 15.74 15.74 0 000 9.23zM538.49 178.12v39.46h-4.7v-39.46zM545.12 197.44a13.34 13.34 0 012.65-4.75 12.49 12.49 0 014.37-3.18 16 16 0 0112 0 12.57 12.57 0 014.34 3.18 13.37 13.37 0 012.65 4.75 19 19 0 01.88 5.89 18.78 18.78 0 01-.88 5.86 13.39 13.39 0 01-2.65 4.73 12.26 12.26 0 01-4.34 3.15 16.36 16.36 0 01-12 0 12.19 12.19 0 01-4.37-3.15 13.36 13.36 0 01-2.65-4.73 18.78 18.78 0 01-.88-5.86 19 19 0 01.88-5.89zm4.78 10.5a9.63 9.63 0 001.91 3.37 8.26 8.26 0 002.85 2.07 8.66 8.66 0 006.91 0 8.27 8.27 0 002.85-2.07 9.65 9.65 0 001.91-3.37 15.76 15.76 0 000-9.23 10 10 0 00-1.91-3.4 8.13 8.13 0 00-2.85-2.1 8.66 8.66 0 00-6.91 0 8.12 8.12 0 00-2.85 2.1 10 10 0 00-1.91 3.4 15.74 15.74 0 000 9.23zM581.76 189v6h.11a12.72 12.72 0 014.2-5.14 10.56 10.56 0 016.3-1.55v5a13.3 13.3 0 00-4.81.77 7.58 7.58 0 00-3.21 2.27 9.37 9.37 0 00-1.77 3.62 19.53 19.53 0 00-.55 4.89v12.71h-4.7V189zM621.22 217.47a6.65 6.65 0 01-3.37.72 4 4 0 01-2.9-1 4.44 4.44 0 01-1.08-3.34 11.23 11.23 0 01-4.5 3.34 15.55 15.55 0 01-9.23.58 8.53 8.53 0 01-3-1.38 6.64 6.64 0 01-2-2.46 8.28 8.28 0 01-.75-3.68 8.4 8.4 0 01.83-4 7.23 7.23 0 012.18-2.51 10 10 0 013.09-1.46q1.74-.5 3.57-.83t3.68-.58a20.28 20.28 0 003.07-.55 5.1 5.1 0 002.1-1 2.56 2.56 0 00.77-2 4.69 4.69 0 00-.58-2.49 4 4 0 00-1.49-1.44 6.06 6.06 0 00-2-.66 15.36 15.36 0 00-2.24-.17 9.94 9.94 0 00-5 1.13q-2 1.13-2.16 4.28h-4.7a10.16 10.16 0 011.11-4.48 8.4 8.4 0 012.65-3 11.13 11.13 0 013.79-1.63 20 20 0 014.56-.5 26.8 26.8 0 013.84.28 10.07 10.07 0 013.45 1.13 6.62 6.62 0 012.49 2.4 7.66 7.66 0 01.94 4v14.67a10.93 10.93 0 00.19 2.43q.19.77 1.3.77a5.69 5.69 0 001.44-.22zm-7.63-14.65a5.86 5.86 0 01-2.32 1q-1.44.3-3 .49t-3.18.44a11.74 11.74 0 00-2.87.8 5.2 5.2 0 00-2.07 1.57 4.37 4.37 0 00-.8 2.78 3.79 3.79 0 00.47 2 3.9 3.9 0 001.22 1.29 5.11 5.11 0 001.74.72 9.72 9.72 0 002.1.22 11.19 11.19 0 004-.63 8.37 8.37 0 002.71-1.59 6.3 6.3 0 001.55-2.09 5.27 5.27 0 00.5-2.12zM646.42 217.58v-3.87h-.11a6.91 6.91 0 01-3.65 3.43 13.93 13.93 0 01-5.47 1.05 12.89 12.89 0 01-5.78-1.22 11.87 11.87 0 01-4.09-3.26 14.2 14.2 0 01-2.46-4.75 19.53 19.53 0 01-.83-5.75 20.15 20.15 0 01.8-5.75 13.53 13.53 0 012.43-4.73 11.75 11.75 0 014.09-3.21 13 13 0 015.72-1.19 13.91 13.91 0 012.38.22 12.12 12.12 0 012.54.75 10.87 10.87 0 012.4 1.38 7.6 7.6 0 011.91 2.13h.11v-14.7h4.7v39.46zm-16.88-10.14a10.5 10.5 0 001.6 3.4 7.84 7.84 0 002.76 2.38 8.4 8.4 0 004 .88 7.75 7.75 0 006.74-3.4 10.27 10.27 0 001.52-3.45 16.75 16.75 0 000-8 10 10 0 00-1.57-3.45 8 8 0 00-2.79-2.4 8.72 8.72 0 00-4.15-.91 8.08 8.08 0 00-4 .94 7.5 7.5 0 00-2.65 2.49 10.81 10.81 0 00-1.44 3.54 18.78 18.78 0 00-.44 4.09 14.59 14.59 0 00.42 3.89zM657.7 197.44a13.34 13.34 0 012.65-4.75 12.49 12.49 0 014.37-3.18 16 16 0 0112 0 12.57 12.57 0 014.34 3.18 13.37 13.37 0 012.65 4.75 19 19 0 01.88 5.89 18.78 18.78 0 01-.88 5.86 13.39 13.39 0 01-2.65 4.73 12.26 12.26 0 01-4.34 3.15 16.36 16.36 0 01-12 0 12.19 12.19 0 01-4.37-3.15 13.36 13.36 0 01-2.65-4.73 18.78 18.78 0 01-.88-5.86 19 19 0 01.88-5.89zm4.78 10.5a9.63 9.63 0 001.91 3.37 8.26 8.26 0 002.85 2.07 8.66 8.66 0 006.91 0 8.27 8.27 0 002.85-2.07 9.65 9.65 0 001.91-3.37 15.76 15.76 0 000-9.23 10 10 0 00-1.91-3.4 8.13 8.13 0 00-2.85-2.1 8.66 8.66 0 00-6.91 0 8.12 8.12 0 00-2.85 2.1 10 10 0 00-1.91 3.4 15.74 15.74 0 000 9.23zM724.3 178.12a24.58 24.58 0 015.14.5 11.12 11.12 0 014 1.63 7.59 7.59 0 012.57 3 10.59 10.59 0 01.91 4.64 8.63 8.63 0 01-1.35 5 9.84 9.84 0 01-4 3.26 9.49 9.49 0 015.44 3.68 12.06 12.06 0 01.63 11.5 10.08 10.08 0 01-3.12 3.57 13.83 13.83 0 01-4.48 2 20.21 20.21 0 01-5.17.66h-19.15v-39.44zm-1.11 16A6.23 6.23 0 00727 193a4.17 4.17 0 001.49-3.59 4.59 4.59 0 00-.5-2.27 3.69 3.69 0 00-1.33-1.38 5.6 5.6 0 00-1.91-.69 12.63 12.63 0 00-2.24-.19h-8.11v9.23zm.5 16.75a11.59 11.59 0 002.43-.25 6 6 0 002-.83 4.19 4.19 0 001.41-1.57 5.43 5.43 0 00.52-2.54q0-3-1.71-4.34a7.31 7.31 0 00-4.53-1.3h-9.41v10.83zM744 197.1a13.06 13.06 0 017.63-7.79 16.32 16.32 0 016.08-1.08 16.54 16.54 0 016.11 1.08 13 13 0 017.65 7.79 17.56 17.56 0 011 6.22 17.34 17.34 0 01-1 6.19 13.44 13.44 0 01-3 4.72 13 13 0 01-4.67 3 17 17 0 01-6.11 1 16.72 16.72 0 01-6.08-1 13 13 0 01-4.64-3 13.39 13.39 0 01-3-4.72 17.31 17.31 0 01-1-6.19 17.53 17.53 0 011.03-6.22zm7.13 9.56a8.9 8.9 0 001.13 2.93 6 6 0 002.13 2.07 6.49 6.49 0 003.32.77 6.65 6.65 0 003.34-.77 6 6 0 002.16-2.07 8.92 8.92 0 001.13-2.93 16.71 16.71 0 00.33-3.34 17.14 17.14 0 00-.33-3.37 8.62 8.62 0 00-1.13-2.93 6.3 6.3 0 00-2.16-2.07 6.47 6.47 0 00-3.34-.8 6 6 0 00-5.44 2.87 8.6 8.6 0 00-1.17 2.98 17.22 17.22 0 00-.33 3.37 16.79 16.79 0 00.33 3.3zM796.92 217.58v-4h-.17a8.82 8.82 0 01-3.87 3.59 11.42 11.42 0 01-4.88 1.13 13.73 13.73 0 01-5.17-.83 7.44 7.44 0 01-3.18-2.35 9.19 9.19 0 01-1.63-3.7 23 23 0 01-.47-4.84V189h7.85v16.14a10 10 0 001.11 5.28q1.1 1.74 3.92 1.74a5.44 5.44 0 004.64-1.91q1.44-1.91 1.44-6.27V189h7.85v28.57zM818.41 178.12v39.46h-7.85v-39.46zM844.89 213.93a8.1 8.1 0 01-3.62 3.34 12.05 12.05 0 01-5.06 1 12.22 12.22 0 01-5.64-1.24 11.33 11.33 0 01-4-3.37 15.27 15.27 0 01-2.38-4.89 20.52 20.52 0 01-.8-5.75 19.28 19.28 0 01.8-5.55 14.43 14.43 0 012.38-4.73 11.54 11.54 0 019.48-4.53 11.24 11.24 0 014.84 1.08 8.42 8.42 0 013.62 3.18h.11v-14.35h7.85v39.46H845v-3.65zm-.33-14.12a8.34 8.34 0 00-1.13-2.87 6.39 6.39 0 00-2.07-2 6.08 6.08 0 00-3.2-.77 6.38 6.38 0 00-3.26.77 6.12 6.12 0 00-2.13 2 9 9 0 00-1.16 2.9 15.76 15.76 0 00-.36 3.4 14.51 14.51 0 00.39 3.32 9 9 0 001.24 3 6.86 6.86 0 002.16 2.1 5.83 5.83 0 003.12.8 6.22 6.22 0 003.23-.77 5.88 5.88 0 002.07-2.07 9.3 9.3 0 001.11-3 17.41 17.41 0 00.33-3.43 17 17 0 00-.34-3.38zM866.77 210.73a8 8 0 009.17.52 4.94 4.94 0 002.1-2.51H885q-1.66 5.14-5.08 7.35a15 15 0 01-8.29 2.21 16.33 16.33 0 01-6.08-1.08 12.65 12.65 0 01-4.59-3.07 13.79 13.79 0 01-2.9-4.75 17.39 17.39 0 01-1-6.08 16.67 16.67 0 011.05-6 13.82 13.82 0 017.6-8 14.79 14.79 0 015.94-1.16 13.59 13.59 0 016.36 1.41 12.7 12.7 0 014.45 3.79 15.58 15.58 0 012.52 5.42 20.22 20.22 0 01.55 6.36h-20.69q.16 3.86 1.93 5.59zm8.87-15a5.52 5.52 0 00-4.28-1.55 6.83 6.83 0 00-3.12.63 6 6 0 00-2 1.58 5.77 5.77 0 00-1 2 9 9 0 00-.36 1.88h12.77a9.08 9.08 0 00-2.01-4.58zM897.56 189v5.31h.11a9.59 9.59 0 011.49-2.46 9.81 9.81 0 012.16-1.93 10.56 10.56 0 012.6-1.24 9.39 9.39 0 012.87-.44 6.13 6.13 0 011.71.28v7.3q-.55-.11-1.33-.19a14 14 0 00-1.49-.08 8.38 8.38 0 00-3.65.72 6.33 6.33 0 00-2.4 2 7.87 7.87 0 00-1.3 2.9 15.81 15.81 0 00-.39 3.59v12.88h-7.84V189z" transform="translate(-40.28 -158.01)"/><script/></svg>