<svg xmlns="http://www.w3.org/2000/svg" xmlns:xlink="http://www.w3.org/1999/xlink"><defs><symbol viewBox="0 0 1.74 3.31" id="facebook"><path id="facebook_Path_153" data-name="Path 153" d="M2.05.61h.42s0,0,0,0V.06a0,0,0,0,0,0,0L2.18,0a1.53,1.53,0,0,0-.37,0A.68.68,0,0,0,1.3.4a.9.9,0,0,0-.09.4v.44s0,0,0,0H.81s0,0,0,0v.53s0,0,0,0h.39V3.32h.65V1.89h.57s0,0,0,0v0c0-.15,0-.3,0-.46V1.28h-.6s0,0,0,0V.82A.2.2,0,0,1,2.05.61Z" transform="translate(-0.77 -0.01)" style="fill:#302f2f" /></symbol><symbol viewBox="0 0 448 512" id="instagram"><path d="M224.1 141c-63.6 0-114.9 51.3-114.9 114.9s51.3 114.9 114.9 114.9S339 319.5 339 255.9 287.7 141 224.1 141zm0 189.6c-41.1 0-74.7-33.5-74.7-74.7s33.5-74.7 74.7-74.7 74.7 33.5 74.7 74.7-33.6 74.7-74.7 74.7zm146.4-194.3c0 14.9-12 26.8-26.8 26.8-14.9 0-26.8-12-26.8-26.8s12-26.8 26.8-26.8 26.8 12 26.8 26.8zm76.1 27.2c-1.7-35.9-9.9-67.7-36.2-93.9-26.2-26.2-58-34.4-93.9-36.2-37-2.1-147.9-2.1-184.9 0-35.8 1.7-67.6 9.9-93.9 36.1s-34.4 58-36.2 93.9c-2.1 37-2.1 147.9 0 184.9 1.7 35.9 9.9 67.7 36.2 93.9s58 34.4 93.9 36.2c37 2.1 147.9 2.1 184.9 0 35.9-1.7 67.7-9.9 93.9-36.2 26.2-26.2 34.4-58 36.2-93.9 2.1-37 2.1-147.8 0-184.8zM398.8 388c-7.8 19.6-22.9 34.7-42.6 42.6-29.5 11.7-99.5 9-132.1 9s-102.7 2.6-132.1-9c-19.6-7.8-34.7-22.9-42.6-42.6-11.7-29.5-9-99.5-9-132.1s-2.6-102.7 9-132.1c7.8-19.6 22.9-34.7 42.6-42.6 29.5-11.7 99.5-9 132.1-9s102.7-2.6 132.1 9c19.6 7.8 34.7 22.9 42.6 42.6 11.7 29.5 9 99.5 9 132.1s2.7 102.7-9 132.1z" /></symbol><symbol viewBox="0 0 32 32" id="menu"><path d="M2 6h28v6H2zm0 8h28v6H2zm0 8h28v6H2z" /></symbol><symbol viewBox="0 0 1200 1227" fill="none" id="twitter">
<path d="M714.163 519.284L1160.89 0H1055.03L667.137 450.887L357.328 0H0L468.492 681.821L0 1226.37H105.866L515.491 750.218L842.672 1226.37H1200L714.137 519.284H714.163ZM569.165 687.828L521.697 619.934L144.011 79.6944H306.615L611.412 515.685L658.88 583.579L1055.08 1150.3H892.476L569.165 687.854V687.828Z" fill="#302f2f" />
</symbol><symbol viewBox="0 0 3.59 2.52" id="youtube"><g id="youtube_Group_59" data-name="Group 59"><path id="youtube_Path_154" data-name="Path 154" d="M1.79,0C.62,0,.34.05.22.18S0,.55,0,1.29H0C0,2,0,2.22.21,2.39s.41.16,1.58.16,1.45,0,1.58-.16.22-.37.22-1.1h0c0-.74,0-.94-.22-1.11S3,0,1.79,0ZM1.43,1.79v-1l.94.5Z" transform="translate(0 -0.03)" style="fill:#302f2f" /></g></symbol></defs></svg>